<svg xmlns="http://www.w3.org/2000/svg" viewBox="0 0 246.5 202.5"><g fill="#010202"><path d="M144.9 11.9c-5.7-1.4-11.4 2.1-12.8 7.8-1.4 5.7 2.1 11.4 7.8 12.8 14.7 3.6 27.5 11.7 37.1 23.4 11.8 14.4 17.3 32.5 15.5 51-1.8 18.5-10.7 35.2-25.1 47-14.4 11.8-32.5 17.3-51 15.5-18.5-1.8-35.2-10.7-47-25.1-11.8-14.4-17.3-32.5-15.5-51C55.6 76.6 63 61.4 75 49.9l-.2 7.2c-.1 4.8 3.7 8.7 8.4 8.8 2.1 0 4.1-.7 5.7-2 1.9-1.5 3.1-3.9 3.1-6.5l.7-31c.1-4.8-3.7-8.7-8.4-8.8l-31-.7c-4.8-.1-8.7 3.7-8.8 8.4-.1 4.8 3.7 8.7 8.4 8.8l7.7.2c-15.8 15-25.6 35-27.7 56.9-2.4 24.1 4.8 47.7 20.2 66.5 15.4 18.7 37.2 30.3 61.3 32.7s47.7-4.8 66.5-20.2 30.3-37.2 32.7-61.3c2.4-24.1-4.8-47.7-20.2-66.5-12.6-15.2-29.3-25.8-48.5-30.5z"/><path d="M133.6 112.9c2.3-1.6 3.8-4.1 4.2-6.9l7.3-46.3c.9-5.8-3-11.2-8.8-12.1-5.8-.9-11.2 3-12.1 8.8l-5.7 35.9-16.1-2.5c-5-.8-9.7 2.1-11.5 6.6-.3.7-.5 1.4-.6 2.2-.9 5.8 3 11.2 8.8 12.1l26.6 4.2c2.8.3 5.6-.4 7.9-2z"/></g></svg>