<svg xmlns="http://www.w3.org/2000/svg" viewBox="0 0 246.5 202.5"><path fill="#010202" d="M110.5 22.2c0-1.2-.1-2.9-.9-4.4-1-1.9-2.8-2.9-5.1-2.9h-.1c-2.4 0-4.2 1.1-5.2 3.1-.7 1.4-.8 3-.8 4.4v32.7h-5.6v-1-8.2-23-.6c0-1.7.1-4.1-1.7-5.9-1-1.1-2.4-1.6-4.2-1.6h-.2c-3.3.1-4.6 2.1-5.1 3.3-.6 1.4-.5 2.9-.5 4.1v33H76v-1-8.3-23.6c0-1.3-.1-2.9-.9-4.4-1-1.9-2.8-3-5-3.1h-.4c-2.3 0-4.1 1-5.1 2.9-.7 1.4-.8 3.1-.8 4.3v13c0 11.8 0 24 .1 36.1C64 79 67.8 83.9 75.6 86V171.9c0 1.9 0 3.8.3 5.8.4 2.8 1.8 5.4 3.8 7.2 2.1 1.8 4.8 2.8 7.6 2.8h.1c5.8 0 10.6-4.2 11.4-9.9.3-1.9.3-3.7.3-5.5v-.4V85.9c3.4-1.2 6-2.8 7.9-4.8 2.4-2.5 3.5-5.7 3.5-9.6V39.3 22.2zM182.6 37.6v-3.2c0-1.4 0-2.8-.2-4.3-1-8.6-7.2-14.7-15.4-15.3h-1.1c-3.6 0-7.1 1.2-9.9 3.5-2.9 2.3-4.9 5.4-5.8 9-.5 2.2-.8 4.6-.8 7.5v77.3h9.5v60.6c0 1.6.1 3.7.6 5.8 1.3 5.4 5.7 8.9 11.3 8.9 5.7 0 10-3.4 11.3-8.9.5-1.9.5-3.9.5-5.7v-.1V37.6z"/></svg>