<svg xmlns="http://www.w3.org/2000/svg" viewBox="0 0 246.5 202.5"><path d="M110.4 151.9c-31.5-.7-56.1-6.7-77.7-22.4C19.4 119.8 9.2 107.6 5 91.4c-5.2-20.2.2-38 13.6-53.5C33.9 20.3 54 10.7 76.4 5.9c28.8-6.1 57.1-3.8 84.1 8.5 17.2 7.8 31.9 19 40.7 36.2 12 23.2 8.5 45.1-7.7 64.9-14.6 17.9-34.4 27.6-56.5 32.6-10.4 2.3-21.1 3-26.6 3.8zM49.7 99c7.9-.3 15.3-2 21.8-6.8 10.9-8.1 11-21.5.3-29.8-12.2-9.4-32.2-9.1-44.1.5-9.6 7.7-10 19.7-.8 27.9 6.5 5.9 14.4 7.8 22.8 8.2zm56.1-40.5c8.6-.2 17-2.3 23.6-8.8 8.5-8.2 7.8-19.8-1.4-27.2-11.8-9.5-31.3-9.9-43.6-1C73 29.9 73 43.6 84.4 52c6.2 4.6 13.3 6.4 21.4 6.5zM161.2 99c7.7-.3 15-2 21.4-6.6 10.7-7.8 11.4-20.3 1.5-29.1-11.6-10.3-34.3-10.3-45.7.1-9.2 8.3-9.2 19.5.1 27.7 6.4 5.7 14.3 7.5 22.7 7.9zm-55.6 40.3c7.5-.1 14.5-1.7 20.6-6 12.4-8.7 12.2-22.9-.3-31.4-12-8.2-30.6-7.7-42.1 1-10.5 8-10.7 21.1-.3 29.3 6.6 5.1 14.2 7 22.1 7.1zm-1.3-56.6c5.4.1 9-2.5 8.9-5.6-.1-3-3.4-5.3-7.7-5.1-1.7.1-3.6.5-5 1.4-3.3 2-3.2 5.8 0 7.8 1.4.9 3.2 1.2 3.8 1.5z"/><path d="M244 180.6c-29.4-3.5-58.1.7-86.5 8.1-10.2 2.7-20.1 6.7-30.4 8.2-35.9 5.3-69.5-.7-98.7-23.8-12.9-10.2-22.3-23.3-24.3-40-1.2-10-.2-20.2-.2-29.2 4.3 5.7 8.7 12.7 14.2 18.6 15.7 16.8 35.7 25.9 57.8 30.7 25.3 5.5 50.1 3.1 74.8-3.7 22-6.1 44.5-10.7 67.4-12.2 7.9-.5 15.8.5 23.7 1 .9.1 2.5 1.6 2.5 2.5.1 13.1.1 26.1 0 39.2 0 .1-.2.4-.3.6z"/><path d="M169.6 140.7c16.4-9.4 29.8-21.4 37.8-38.6 0 10.2 0 20.5-.1 30.7 0 .8-1.1 2.2-1.9 2.3-11.6 2.1-23.3 4.1-34.9 6.1-.2 0-.4-.2-.9-.5z"/></svg>