<svg xmlns="http://www.w3.org/2000/svg" viewBox="0 0 246.5 202.5"><path d="M230.8 27.2c-11.8-4.5-24-5.1-35.6.2-21.6 9.8-42.8 20.4-64.2 30.6-23 11-46 22.1-69.1 33.1-1.5.7-3.8.7-5.5.2-11.3-3.4-22.8-6.6-33.8-10.8-6.4-2.5-10.8.2-15.8 3.2.3.8.4 1.4.7 1.8 10.7 11 28.6 28.9 39.2 40 4.1 4.3 9.1 5.8 14.7 5.1l66-28.6c-.9 9.7-1.6 18.6-2.6 27.5-1.9 18.2-4 36.3-6 54.5-.3 3 1 4.2 4 2.7 4-2 12.2-5.8 12.2-5.8s7.2-4.9 8.8-9.5c10.4-30 21-60 31.7-90 .7-1.9 2.5-3.8 4.2-4.7 13.9-6.9 27.9-13.4 41.8-20.2 6.4-3.1 11.5-7.7 14.8-14.1 3.6-6.9 1.8-12.4-5.5-15.2z"/><path d="M51.9 36.7c10.9 7.2 36.6 23.7 47.6 30.7l40-19.3C123 42.3 72.9 23.7 72.9 23.7s-4.5-.2-6.5.6c-4.9 2-9.5 4.3-14.2 6.7-1.1.6-2.9 1.8-2.8 2.4.2 1.2 1.4 2.5 2.5 3.3z"/></svg>