<svg xmlns="http://www.w3.org/2000/svg" viewBox="0 0 246.5 202.5"><path d="M122.7 20.4c32.9.5 61.5 10.6 86.5 30.8 8.8 7.2 16.5 15.4 23.3 24.5 1.3 1.7 1.2 2.6-.3 4.2-5.6 6.2-11.3 12.4-16.9 18.7-1.5 1.7-3.4 1.5-4.9-.6-6.6-8.8-14.3-16.5-23.3-22.8-14.3-10.2-30.1-16.6-47.5-19-28-3.9-54 1.7-77.6 17.3C52.1 80 43.7 88 36.6 97.4c-2.4 3.1-3.5 3.1-6.1.2-5-5.5-10-11-15-16.4-3-3.2-3-3.3-.4-6.7 16.4-21.5 37.2-37 62.6-46.2 12.2-4.4 24.9-7 37.9-7.6 2.6-.1 5.3-.2 7.1-.3z"/><path d="M120.8 79.8c24.2.4 44 6.1 61 19.5 4.9 3.8 9 8.7 13.3 13.1 1.2 1.2 1 2.5-.2 3.8l-15.3 16.2c-.3.4-.7.7-1 1.1-1.7 1.7-3.3 1.7-4.9-.1-9-10.5-20.5-17.1-33.8-20.2-24.8-5.7-46.7.2-65.1 18-.7.7-1.3 1.5-2 2.2-1.7 1.8-3.2 1.8-4.8.1-4.9-5.2-9.6-10.5-14.6-15.6-4.4-4.4-2.7-4.5.1-7.7 13.7-15.8 31.3-24.9 51.7-28.6 6-1.1 12.1-1.4 15.6-1.8z"/><path d="M122.2 129.1c15.3 0 27.6 12.3 27.8 27.7.2 15.2-12.5 27.9-27.8 27.9-15.2 0-27.7-12.5-27.8-27.7-.2-15.4 12.4-27.9 27.8-27.9z"/></svg>