<?xml version="1.0" encoding="utf-8"?>
<!-- Generator: Adobe Illustrator 18.0.0, SVG Export Plug-In . SVG Version: 6.00 Build 0)  -->
<!DOCTYPE svg PUBLIC "-//W3C//DTD SVG 1.1//EN" "http://www.w3.org/Graphics/SVG/1.1/DTD/svg11.dtd">
<svg version="1.1" id="Layer_1" xmlns="http://www.w3.org/2000/svg" xmlns:xlink="http://www.w3.org/1999/xlink" x="0px" y="0px"
	 viewBox="0 0 246.5 202.5" enable-background="new 0 0 246.5 202.5" xml:space="preserve">
<g id="gJmvVy_1_">
	<g>
		<path d="M123.1,123.3c-6.9,9.4-13.6,18.7-20.3,28c-0.3,0.5-0.3,1.5,0,2.1c3.8,8.9,7.7,17.8,11.5,26.7c1.8,4.2,0.2,8.6-3.7,10.4
			c-4,1.9-8.5,0.3-10.4-4c-2.6-5.8-5.1-11.7-7.6-17.5c-0.3-0.6-0.6-1.3-1-2.2c-2.6,3.6-5.1,7-7.6,10.4c-2.9,3.9-5.7,7.9-8.6,11.8
			c-2,2.7-4.8,3.7-8.1,3c-3-0.7-5-2.6-5.8-5.6c-0.7-2.6,0-5,1.6-7.2c4.8-6.6,9.6-13.2,14.4-19.9c0.4-0.5,0.7-1,1.2-1.8
			c-2.9-0.3-5.6-0.6-8.4-0.8c-4.4-0.4-8.9-0.7-13.3-1.3c-4.2-0.6-7.2-4.6-6.6-8.6c0.6-4.3,4.4-7.2,8.6-6.8
			c9.8,0.9,19.5,1.9,29.3,2.7c0.6,0.1,1.5-0.6,1.9-1.2c6.1-8.4,12.2-16.8,18.3-25.2c0.5-0.7,1.1-1.5,1.7-2.4
			c-2.6-0.9-5.1-1.7-7.6-2.5c-8.3-2.7-16.6-5.3-24.9-8c-1.1-0.4-1.7-0.2-2.5,0.5c-6.9,6.2-13.9,12.4-20.9,18.6c-2,1.8-4.2,3.1-7,2.8
			c-3.2-0.3-5.5-2.1-6.5-5.1c-1.1-3.1-0.5-6,1.9-8.2c4.2-3.9,8.6-7.7,12.9-11.5c1.1-1,2.2-1.9,3.4-3.1c-4.7-1.5-9.1-3-13.5-4.4
			c-4.2-1.4-8.5-2.7-12.7-4.1c-3.7-1.3-5.6-4.5-5.3-8.3c0.3-3.4,2.9-6.3,6.6-6.7c1.6-0.2,3.4,0.2,4.9,0.7c8.2,2.5,16.3,5.2,24.7,7.9
			c-0.7-3.3-1.4-6.5-2.2-9.6c-0.8-3.6-1.7-7.2-2.5-10.9c-1-4.5,1.6-8.7,5.8-9.7c4.2-1,8.3,1.5,9.4,5.9c2.2,9.4,4.3,18.8,6.5,28.2
			c0.2,1,0.4,1.7,1.6,2.1c10.5,3.3,20.9,6.7,31.4,10c0.4,0.1,0.8,0.2,1.3,0.3c0-0.7,0-1.2,0-1.8c0-10.7,0-21.4,0-32
			c0-1.3-0.5-2-1.5-2.6c-8.3-4.8-16.5-9.7-24.8-14.6c-5-3-5.4-9.5-1-13c2.5-2,6-2.2,9.2-0.3c5.5,3.2,10.9,6.4,16.3,9.6
			c0.5,0.3,1,0.5,1.7,1c0-0.8,0-1.4,0-2c0-8.1,0-16.3,0-24.4c0-4.6,2.2-7.6,6.1-8.6c4.3-1.1,8.8,1.9,9.4,6.2
			c0.1,0.9,0.2,1.8,0.2,2.7c0,8,0,15.9,0,23.9c0,0.6,0,1.2,0,2.1c0.8-0.4,1.3-0.7,1.7-0.9c5.4-3.2,10.8-6.5,16.3-9.7
			c4.4-2.6,9.5-1,11.4,3.3c1.7,3.7,0.3,7.8-3.4,10.1c-8.2,4.9-16.5,9.8-24.7,14.7c-0.8,0.5-1.3,1-1.3,2.1c0,11.1,0,22.1,0,33.2
			c0,0.3,0,0.7,0.1,1.2c1.9-0.6,3.7-1.1,5.5-1.7c8.9-2.8,17.8-5.6,26.8-8.3c1.4-0.4,2-1.1,2.4-2.6c2.1-9.2,4.3-18.4,6.4-27.6
			c1.1-4.6,5.2-7.2,9.5-6.2c4.2,1,6.7,5.1,5.7,9.6c-0.6,2.7-1.2,5.4-1.9,8.1c-1,4.1-1.9,8.2-3,12.6c2.4-0.7,4.5-1.4,6.6-2
			c6.5-2,13-4.1,19.5-6.1c4.5-1.4,8.7,1,9.9,5.4c1.2,4.2-1.1,8.2-5.6,9.6c-7.6,2.4-15.3,4.8-22.9,7.2c-0.9,0.3-1.7,0.5-2.9,0.9
			c2.4,2.2,4.6,4.2,6.9,6.2c3.1,2.8,6.3,5.6,9.4,8.6c2.4,2.3,2.8,5.8,1.3,8.8c-1.4,2.9-4.6,4.9-7.7,4.3c-1.8-0.4-3.7-1.3-5-2.5
			c-7-6.1-13.9-12.4-20.8-18.6c-1-0.9-1.8-1.2-3.1-0.8c-10.3,3.3-20.7,6.5-31.1,9.8c-0.3,0.1-0.6,0.2-1.1,0.4
			c0.8,1.1,1.5,2.1,2.2,3.1c5.8,8,11.6,16,17.3,24.1c1,1.4,2,1.7,3.6,1.5c9.4-0.9,18.8-1.8,28.1-2.6c4.8-0.4,8.5,2.8,8.7,7.3
			c0.2,4.6-3,7.9-7.9,8.3c-6.5,0.5-12.9,1.1-19.4,1.7c-0.3,0-0.6,0.2-1.1,0.4c2.8,4,5.6,7.8,8.4,11.6c2.5,3.5,5.2,7,7.6,10.6
			c3.3,4.8,0.8,11-4.9,12.1c-3.4,0.7-6.1-0.7-8.1-3.4c-3.8-5.3-7.6-10.5-11.4-15.8c-1.4-2-2.8-3.9-4.4-6.1
			c-1.9,4.4-3.8,8.6-5.6,12.8c-0.9,2.2-1.8,4.4-2.8,6.5c-1.7,3.7-5,5.4-8.8,4.7c-3.3-0.6-5.9-3.5-6.2-7.1c-0.1-1.3,0.3-2.8,0.8-4.1
			c3.7-8.8,7.5-17.5,11.4-26.2c0.5-1,0.5-1.7-0.2-2.7c-6.4-8.8-12.7-17.6-19.1-26.3C123.8,124.2,123.5,123.8,123.1,123.3z"/>
	</g>
</g>
</svg>
