<?xml version="1.0" encoding="utf-8"?>
<!-- Generator: Adobe Illustrator 18.0.0, SVG Export Plug-In . SVG Version: 6.00 Build 0)  -->
<!DOCTYPE svg PUBLIC "-//W3C//DTD SVG 1.1//EN" "http://www.w3.org/Graphics/SVG/1.1/DTD/svg11.dtd">
<svg version="1.1" id="Layer_1" xmlns="http://www.w3.org/2000/svg" xmlns:xlink="http://www.w3.org/1999/xlink" x="0px" y="0px"
	 viewBox="0 0 246.5 202.5" enable-background="new 0 0 246.5 202.5" xml:space="preserve">
<g>
	<path fill="#010202" d="M175.2,85.1c5.3-5.5,8.5-15.1,8.5-22.2c0-5.4-2-14.7-6.4-20.3c1.6-18.9,2.7-25.7,2.7-25.7
		c0-0.3,0.1-0.6,0.1-0.9c0-4.8-2.9-8.2-6.9-8.2c-0.1,0-0.5,0-1.2,0c-0.2,0-0.4,0-0.6,0c-0.1,0-24.3,0-48.4,0l-44.1,0
		c-1.4,0-2.7,0-3.9,0.1l0-0.1c-0.9,0-1.5-0.1-1.6-0.1c-4,0-6.9,3.5-6.9,8.2c0,0.3,0,0.6,0.1,0.9c0,0.1,1.1,6.8,2.7,25.8
		c-0.7,0.9-1.4,2-2,3.1h-0.5l0.1,0.7c-2.8,5.4-4.1,12.1-4.1,16.5c0,6.8,3,16,7.9,21.6l10,99.3l1.6-0.1c6,6.2,25,10.9,41,10.9
		c19,0,42.1-6.6,42.8-14.5h0c0-0.3,0.2-2.1,0.5-5c1.2-12.9,4.8-50.7,7.7-85.9C174.6,87.8,174.9,86.5,175.2,85.1z M77,18.1
		c13.2,0,80.3,0,92.4,0c-0.5,3.8-1.4,11.8-2.6,26c0,0.6,0,1.1,0.2,1.7H79.4c0.1-0.5,0.2-1.1,0.2-1.7C78.5,30,77.6,22,77,18.1z"/>
</g>
</svg>
