<?xml version="1.0" encoding="utf-8"?>
<!-- Generator: Adobe Illustrator 18.0.0, SVG Export Plug-In . SVG Version: 6.00 Build 0)  -->
<!DOCTYPE svg PUBLIC "-//W3C//DTD SVG 1.1//EN" "http://www.w3.org/Graphics/SVG/1.1/DTD/svg11.dtd">
<svg version="1.1" id="Layer_1" xmlns="http://www.w3.org/2000/svg" xmlns:xlink="http://www.w3.org/1999/xlink" x="0px" y="0px"
	 viewBox="0 0 246.5 202.5" enable-background="new 0 0 246.5 202.5" xml:space="preserve">
<path d="M210.3,83c-5.4-2-11-3-16.5-3c-4.4,0-8.9,0.6-13.5,1.9c-0.9-2-1.8-3.9-2.7-5.8c-2.9-6.1-5.8-12.5-8.2-18.8
	c-0.5-1.4,0.6-4,1.6-6.2c0.1-0.3,0.3-0.6,0.4-0.9c0.5-0.1,1.4-0.2,1.9-0.2c0.3,0,0.6-0.1,0.9-0.1c1.4-0.2,2.9-0.2,4.4-0.3
	c0.7,0,1.3-0.1,2-0.1l1.5-0.1V37.6l-14.9,0c-7.8,0-16.2,0-24.7,0.1c-1.4,0-3.4,1.6-3.5,3.1c-0.1,1.3,0.8,3.4,2.3,4
	c2.3,0.9,4.8,1.5,6.9,2.1c2.6,0.6,5.4,1.2,8,1.8c0.6,0.1,1.1,0.2,1.7,0.4c0,0,0,0,0,0c-0.4,1.1-0.8,2.1-1,3.2
	c-0.4,1.8-1,2.4-3.7,2.4l-0.1,0c-13.4-0.1-26.6-0.1-36.7-0.1c-5.5,0-11,0-16.5,0c-5.5,0-11,0-16.5,0h-1.9l0.2-0.7
	c0.5-1.8,0.9-3.4,1.4-5.1c1.9-6.8,3.1-7.7,10.2-7.7c2.7,0,5.4,0,8,0c1.2,0,2.4,0,3.6,0h1.6v-12H105c-1.7,0-3.3,0-5,0
	c-1.6,0-3.2,0-4.9,0c-2.3,0-4.2,0-6,0c-8.3,0.1-14,4.4-16.9,12.8c-2.2,6.4-4.5,13.3-7,21.3c-1.4,4.5-2.8,9-4.1,13.3
	c-0.4,1.5-0.9,3-1.3,4.4c-1.2,0-2.3-0.1-3.4-0.1c-1.5,0-2.9-0.1-4.3-0.1c-2,0-3.6,0.1-5.1,0.3c-24.2,3.1-42,24.6-40.4,48.9
	c0.8,11.7,6,22.7,14.8,30.9c8.7,8.1,19.8,12.5,31.3,12.5c3.1,0,6.2-0.3,9.3-1c18.6-4,32.9-18.5,36.3-37c3.4-18.3-4.6-36.8-20.3-47.1
	c-0.7-0.5-1.5-0.9-2.2-1.3c-1.2-0.7-3.1-1.7-3.3-2.4c-0.3-1.1,0.5-2.9,1.2-4.6c0.1-0.3,0.2-0.5,0.3-0.8c2.3,2.5,4.5,5,6.8,7.4
	c6.7,7.4,13.7,15,20.4,22.5c3.6,4,7.2,8.2,10.7,12.2c2.8,3.3,5.8,6.7,8.7,9.9c3.4,3.8,7.7,5.6,12.9,5.4c1.2,0,2.6-0.1,4.2-0.1
	c1,0,2,0,3.1,0c2.1,0,4.1,0,6.2,0l0.2,0c1,0,1.4,0.1,1.8,1.5c5.8,20.8,23.4,34.2,44.6,34.2c2.1,0,4.2-0.1,6.3-0.4
	c20.5-2.5,37.1-19.3,39.6-39.8C242.1,111,229.8,90.3,210.3,83z M84.3,135.2c-3.7,14.3-16.7,24.3-31.7,24.3c-2.8,0-5.5-0.3-8.2-1
	c-16.8-4.2-27.4-22.1-23.4-39c4-16.4,18.7-25,31.2-25c1.1,0,2.2,0.1,3.2,0.2L54,99.9c-2.2,7-4.2,13.5-6.3,20.3
	c-0.5,1.5-0.8,3.2-1,5.3c-0.4,3.6,1.3,6.2,4.8,7c0.5,0.1,1.1,0.2,1.6,0.2c1.5,0,4.1-0.6,5.4-4.5c2.4-7.3,4.8-14.7,7.2-21.8l0.1-0.4
	c0.7-2.1,1.3-4.2,2-6.3c0.1-0.4,0.3-0.9,0.4-1.3C80,102.6,88.1,120.6,84.3,135.2z M130.5,121.8L80.9,67.7h69.7L130.5,121.8z
	 M147.4,124.4h-4.3l19.3-50.7l6.2,13.6C155.7,96.1,148.6,108.6,147.4,124.4z M161.2,124.2c0.7-9.8,5-17.7,13.1-24.2l10.9,24.2H161.2
	z M222.5,141.2c-5.7,10.8-16.8,17.6-29,17.6c-1.7,0-3.5-0.1-5.2-0.4c-11.5-1.8-22.6-11.5-25.3-21.6l8.8,0c2.3,0,4.7,0,7,0l1,0
	c1.1,0,2.2,0,3.3,0c1.1,0,2.2,0,3.3,0c2.5,0,5.5,0,8.5-0.2c2.9-0.1,4.9-1,5.9-2.7c1-1.7,0.9-3.9-0.3-6.7c-3.2-7.4-6.5-14.8-9.8-22
	c-1.4-3.1-2.8-6.2-4.1-9.3c-0.2-0.5-0.4-0.9-0.6-1.4c2.1-0.8,4.6-1.2,7.3-1.2c8.6,0,17.9,3.9,23.6,9.9
	C226.9,113.9,229.1,128.7,222.5,141.2z"/>
</svg>
