<?xml version="1.0" encoding="utf-8"?>
<!-- Generator: Adobe Illustrator 18.0.0, SVG Export Plug-In . SVG Version: 6.00 Build 0)  -->
<!DOCTYPE svg PUBLIC "-//W3C//DTD SVG 1.1//EN" "http://www.w3.org/Graphics/SVG/1.1/DTD/svg11.dtd">
<svg version="1.1" id="Layer_1" xmlns="http://www.w3.org/2000/svg" xmlns:xlink="http://www.w3.org/1999/xlink" x="0px" y="0px"
	 viewBox="0 0 246.5 202.5" enable-background="new 0 0 246.5 202.5" xml:space="preserve">
<g>
	<g>
		<path fill="#010202" d="M110.5,22.2c0-1.2-0.1-2.9-0.9-4.4c-1-1.9-2.8-2.9-5.1-2.9l-0.1,0c-2.4,0-4.2,1.1-5.2,3.1
			c-0.7,1.4-0.8,3-0.8,4.4c0,7.9,0,16,0,23.7c0,2.8,0,5.6,0,8.4v0.6h-5.6v-1c0-2.7,0-5.5,0-8.2c0-7.5,0-15.3,0-23c0-0.2,0-0.4,0-0.6
			c0-1.7,0.1-4.1-1.7-5.9c-1-1.1-2.4-1.6-4.2-1.6c-0.1,0-0.1,0-0.2,0c-3.3,0.1-4.6,2.1-5.1,3.3c-0.6,1.4-0.5,2.9-0.5,4.1
			c0,0.2,0,0.4,0,0.6c0,7.8,0,15.7,0,23.3l0,8.2v0.9h-5.1l0-1c0-2.8,0-5.5,0-8.3c0-7.7,0-15.7,0-23.6c0-1.3-0.1-2.9-0.9-4.4
			c-1-1.9-2.8-3-5-3.1c-0.1,0-0.2,0-0.4,0h0h0c-2.3,0-4.1,1-5.1,2.9c-0.7,1.4-0.8,3.1-0.8,4.3c0,4.3,0,8.6,0,13
			c0,11.8,0,24,0.1,36.1C64,79,67.8,83.9,75.6,86v1.9l0,15.8c0,22.3,0,45.4,0,68.1l0,0.1c0,1.9,0,3.8,0.3,5.8
			c0.4,2.8,1.8,5.4,3.8,7.2c2.1,1.8,4.8,2.8,7.6,2.8l0.1,0c5.8,0,10.6-4.2,11.4-9.9c0.3-1.9,0.3-3.7,0.3-5.5v-0.4
			c0-22.8,0-46,0-68.4l0-15.9v-1.7c3.4-1.2,6-2.8,7.9-4.8c2.4-2.5,3.5-5.7,3.5-9.6c0-10.7,0-21.6,0-32.2
			C110.5,33.8,110.5,27.9,110.5,22.2z"/>
	</g>
	<path fill="#010202" d="M182.6,37.6l0-2.7l0-0.5c0-1.4,0-2.8-0.2-4.3c-1-8.6-7.2-14.7-15.4-15.3c-0.4,0-0.7,0-1.1,0
		c-3.6,0-7.1,1.2-9.9,3.5c-2.9,2.3-4.9,5.4-5.8,9c-0.5,2.2-0.8,4.6-0.8,7.5c0,21,0,35.8,0,54.6c0,5.1,0,10.5,0,16.4v3.3v3h3h6.5
		l0,1.1c0,3.5,0,7.3,0,11.4c0,15.5,0,34.9,0,48.1c0,1.6,0.1,3.7,0.6,5.8c1.3,5.4,5.7,8.9,11.3,8.9c5.7,0,10-3.4,11.3-8.9
		c0.5-1.9,0.5-3.9,0.5-5.7l0-0.1C182.6,118.5,182.6,73.7,182.6,37.6z"/>
</g>
</svg>
