<?xml version="1.0" encoding="utf-8"?>
<!-- Generator: Adobe Illustrator 18.0.0, SVG Export Plug-In . SVG Version: 6.00 Build 0)  -->
<!DOCTYPE svg PUBLIC "-//W3C//DTD SVG 1.1//EN" "http://www.w3.org/Graphics/SVG/1.1/DTD/svg11.dtd">
<svg version="1.1" id="Layer_1" xmlns="http://www.w3.org/2000/svg" xmlns:xlink="http://www.w3.org/1999/xlink" x="0px" y="0px"
	 viewBox="0 0 246.5 202.5" enable-background="new 0 0 246.5 202.5" xml:space="preserve">
<path fill="#010202" d="M236.9,83c-0.2-12.2-10.8-22.7-23.2-23c-3.1-0.1-6.1,0.5-9.4,1.8c0-0.5-0.1-1.1-0.1-1.6
	c-1.2-18.5-16.1-33-34.1-33.1c-18.6,0-13.8-0.1-33.5-0.1c-19.1,0-39.2,0-59.8,0.1c-8.6,0-16.8,3.2-23.2,9
	c-6.3,5.8-10.3,13.6-11.2,22.2c-0.1,1.2-0.2,2.3-0.3,3.5c-2.8-1.1-5.7-1.7-8.7-1.7C20.6,60.1,10,70.2,9.7,82.7
	c-0.4,15-0.3,30.1,0,44.8c0.2,8.4,4.6,15.4,12.2,19.6c3.8,2.1,7.8,3.1,12.1,3.1l0.3,0c2,0,3.9,0,5.9,0c0.3,0.3,0.5,0.5,0.7,0.7
	l0,1.8c0,4.9,0,9.5,0,14.3c0,1.4,0.2,2.6,0.5,3.6c1,2.9,3.8,4.8,7,4.8c0.3,0,0.6,0,0.9-0.1c3.4-0.4,6.1-3.1,6.3-6.4
	c0.2-2.8,0.2-5.7,0.2-8.4c0-0.8,0-1.6,0-2.5c0-2.3,0-4.7,0-6.9c0,0,0,0,0,0c0-0.4,0.3-0.7,0.7-0.7h133.7v0.7c0,1.6,0,3.2,0,4.8
	c0,3.7,0,7.5,0,11.3c0,4.4,2.6,7.7,6.4,8.1c0.4,0,0.7,0.1,1.1,0.1c4.4,0,7.5-3.3,7.5-7.9c0-4.1,0-8.3,0-12.3c0-1.6,0-3.3,0-4.9
	c0.3,0,0.7,0,1,0c2.3,0,4.6,0,6.8,0c12.6-0.2,23.4-10.7,23.6-23C237.1,112.2,237.1,97.3,236.9,83z M66.1,45.3
	c3-2.2,6.6-3.3,10.6-3.3c10,0,20,0,30.1,0l34.7,0c15.6,0,9.8,0,28.4,0c5,0,10,2.2,13.7,5.9c3.8,3.8,5.8,8.8,5.8,14
	c-0.1,9.9-0.1,19.9,0,29.7c0,3.5,0,7.1,0,10.7h-132c0-3.7,0-7.4,0-11.1c0-9.2,0-18.8-0.1-28.2C57.1,55.4,60,49.7,66.1,45.3z
	 M222,126.6c0,4.7-3.8,8.4-8.6,8.5c-0.1,0-0.2,0-0.3,0l-41.5,0c-45.9,0-91.8,0-137.7,0c-2.9,0-4.9-0.8-6.7-2.5
	c-1.8-1.8-2.7-3.9-2.7-6.4c0-12.4,0-27.2,0-42.3c0-3.9,2.8-7.7,6.2-8.6c0.9-0.2,1.8-0.4,2.7-0.4c3.3,0,6.1,1.6,7.6,4.4
	c0.7,1.3,1.1,3.2,1.2,5.1c0.1,6.8,0.1,13.8,0.1,20.5c0,2.5,0,5,0,7.5v4.8h162v-4.8c0-2.8,0-5.6,0-8.5c0-6.5,0.1-13.2-0.1-19.8
	c-0.1-2.5,0.9-4.8,2.6-6.5c1.7-1.8,4-2.7,6.4-2.7c0.7,0,1.5,0.1,2.2,0.3c3.7,0.9,6.6,4.6,6.6,8.5C222.1,96.3,222.1,111.3,222,126.6z
	"/>
</svg>
