<?xml version="1.0" encoding="utf-8"?>
<!-- Generator: Adobe Illustrator 18.0.0, SVG Export Plug-In . SVG Version: 6.00 Build 0)  -->
<!DOCTYPE svg PUBLIC "-//W3C//DTD SVG 1.1//EN" "http://www.w3.org/Graphics/SVG/1.1/DTD/svg11.dtd">
<svg version="1.1" id="Layer_1" xmlns="http://www.w3.org/2000/svg" xmlns:xlink="http://www.w3.org/1999/xlink" x="0px" y="0px"
	 viewBox="0 0 246.5 202.5" enable-background="new 0 0 246.5 202.5" xml:space="preserve">
<g id="DbP4qa_1_">
	<g>
		<path d="M110.4,151.9c-31.5-0.7-56.1-6.7-77.7-22.4c-13.3-9.7-23.5-21.9-27.7-38.1c-5.2-20.2,0.2-38,13.6-53.5
			C33.9,20.3,54,10.7,76.4,5.9c28.8-6.1,57.1-3.8,84.1,8.5c17.2,7.8,31.9,19,40.7,36.2c12,23.2,8.5,45.1-7.7,64.9
			c-14.6,17.9-34.4,27.6-56.5,32.6C126.6,150.4,115.9,151.1,110.4,151.9z M49.7,99c7.9-0.3,15.3-2,21.8-6.8
			c10.9-8.1,11-21.5,0.3-29.8c-12.2-9.4-32.2-9.1-44.1,0.5c-9.6,7.7-10,19.7-0.8,27.9C33.4,96.7,41.3,98.6,49.7,99z M105.8,58.5
			c8.6-0.2,17-2.3,23.6-8.8c8.5-8.2,7.8-19.8-1.4-27.2c-11.8-9.5-31.3-9.9-43.6-1C73,29.9,73,43.6,84.4,52
			C90.6,56.6,97.7,58.4,105.8,58.5z M161.2,99c7.7-0.3,15-2,21.4-6.6c10.7-7.8,11.4-20.3,1.5-29.1c-11.6-10.3-34.3-10.3-45.7,0.1
			c-9.2,8.3-9.2,19.5,0.1,27.7C144.9,96.8,152.8,98.6,161.2,99z M105.6,139.3c7.5-0.1,14.5-1.7,20.6-6c12.4-8.7,12.2-22.9-0.3-31.4
			c-12-8.2-30.6-7.7-42.1,1c-10.5,8-10.7,21.1-0.3,29.3C90.1,137.3,97.7,139.2,105.6,139.3z M104.3,82.7c5.4,0.1,9-2.5,8.9-5.6
			c-0.1-3-3.4-5.3-7.7-5.1c-1.7,0.1-3.6,0.5-5,1.4c-3.3,2-3.2,5.8,0,7.8C101.9,82.1,103.7,82.4,104.3,82.7z"/>
		<path d="M244,180.6c-29.4-3.5-58.1,0.7-86.5,8.1c-10.2,2.7-20.1,6.7-30.4,8.2c-35.9,5.3-69.5-0.7-98.7-23.8
			c-12.9-10.2-22.3-23.3-24.3-40c-1.2-10-0.2-20.2-0.2-29.2c4.3,5.7,8.7,12.7,14.2,18.6c15.7,16.8,35.7,25.9,57.8,30.7
			c25.3,5.5,50.1,3.1,74.8-3.7c22-6.1,44.5-10.7,67.4-12.2c7.9-0.5,15.8,0.5,23.7,1c0.9,0.1,2.5,1.6,2.5,2.5
			c0.1,13.1,0.1,26.1,0,39.2C244.3,180.1,244.1,180.4,244,180.6z"/>
		<path d="M169.6,140.7c16.4-9.4,29.8-21.4,37.8-38.6c0,10.2,0,20.5-0.1,30.7c0,0.8-1.1,2.2-1.9,2.3c-11.6,2.1-23.3,4.1-34.9,6.1
			C170.3,141.2,170.1,141,169.6,140.7z"/>
	</g>
</g>
</svg>
