<?xml version="1.0" encoding="utf-8"?>
<!-- Generator: Adobe Illustrator 18.0.0, SVG Export Plug-In . SVG Version: 6.00 Build 0)  -->
<!DOCTYPE svg PUBLIC "-//W3C//DTD SVG 1.1//EN" "http://www.w3.org/Graphics/SVG/1.1/DTD/svg11.dtd">
<svg version="1.1" id="Layer_1" xmlns="http://www.w3.org/2000/svg" xmlns:xlink="http://www.w3.org/1999/xlink" x="0px" y="0px"
	 viewBox="0 0 246.5 202.5" enable-background="new 0 0 246.5 202.5" xml:space="preserve">
<g id="whCHzW_1_">
	<g>
		<path d="M123.3,148.8c-29.7,0-59.3,0-89,0c-8.5,0-13.8-5.4-13.8-13.9c0-12,0-24,0-36c0-14,9.1-24.7,23.1-26.6
			c1.9-0.3,1.8-1.4,2.1-2.5c2.9-11,5.7-22,8.6-33.1c2.5-9.6,11.4-16.5,21.3-16.5c31.8,0,63.7,0,95.5,0c9.9,0,18.7,6.9,21.3,16.5
			c2.9,11,5.8,22,8.6,33.1c0.4,1.6,0.9,2.3,2.9,2.6c13.1,1.9,22.3,12.7,22.4,26c0,12.3,0,24.5,0,36.8c0,8.3-5.4,13.7-13.8,13.7
			C182.6,148.8,152.9,148.8,123.3,148.8z M186.2,72c0-0.6,0.1-0.9,0-1.2c-2.6-10.2-5.3-20.4-8-30.6c-0.9-3.2-4-5.5-7.5-5.5
			c-31.7,0-63.3,0-95,0c-3.8,0-6.7,2.3-7.6,6c-1.8,6.8-3.6,13.7-5.4,20.5c-0.9,3.6-1.8,7.2-2.8,10.9C102.3,72,144.2,72,186.2,72z
			 M176,102c0,7.2,5.7,13.1,12.9,13.2c7.1,0.1,13.2-5.9,13.1-13.2c0-7.2-5.8-13-13-13C181.8,89,176.1,94.7,176,102z M70.4,102.1
			c0-7.2-5.7-13-12.9-13.1c-7.2-0.1-13.1,5.8-13.1,12.9c-0.1,7.2,6,13.3,13.1,13.3C64.6,115.1,70.4,109.2,70.4,102.1z"/>
		<path d="M204.3,156c-0.2,5.1,0.1,10.1-0.8,15c-1.4,7.3-8.4,11.9-16,11.3c-6.8-0.5-12.6-6.2-13.2-13.4c-0.3-4.2-0.1-8.4-0.1-12.8
			C184,156,193.8,156,204.3,156z"/>
		<path d="M42.6,155.9c10,0,19.7,0,30.1,0c-0.3,5.2,0,10.5-1.1,15.4c-1.5,7.2-8.2,11.4-15.8,10.9c-6.7-0.5-12.6-6.1-13.2-13.1
			C42.3,164.8,42.6,160.4,42.6,155.9z"/>
	</g>
</g>
</svg>
