<?xml version="1.0" encoding="utf-8"?>
<!-- Generator: Adobe Illustrator 18.0.0, SVG Export Plug-In . SVG Version: 6.00 Build 0)  -->
<!DOCTYPE svg PUBLIC "-//W3C//DTD SVG 1.1//EN" "http://www.w3.org/Graphics/SVG/1.1/DTD/svg11.dtd">
<svg version="1.1" id="Layer_1" xmlns="http://www.w3.org/2000/svg" xmlns:xlink="http://www.w3.org/1999/xlink" x="0px" y="0px"
	 viewBox="0 0 246.5 202.5" enable-background="new 0 0 246.5 202.5" xml:space="preserve">
<g>
	<path d="M230.8,27.2c-11.8-4.5-24-5.1-35.6,0.2C173.6,37.2,152.4,47.8,131,58c-23,11-46,22.1-69.1,33.1c-1.5,0.7-3.8,0.7-5.5,0.2
		c-11.3-3.4-22.8-6.6-33.8-10.8c-6.4-2.5-10.8,0.2-15.8,3.2c0.3,0.8,0.4,1.4,0.7,1.8c10.7,11,28.6,28.9,39.2,40
		c4.1,4.3,9.1,5.8,14.7,5.1l66-28.6c-0.9,9.7-1.6,18.6-2.6,27.5c-1.9,18.2-4,36.3-6,54.5c-0.3,3,1,4.2,4,2.7c4-2,12.2-5.8,12.2-5.8
		s7.2-4.9,8.8-9.5c10.4-30,21-60,31.7-90c0.7-1.9,2.5-3.8,4.2-4.7c13.9-6.9,27.9-13.4,41.8-20.2c6.4-3.1,11.5-7.7,14.8-14.1
		C239.9,35.5,238.1,30,230.8,27.2z"/>
	<path d="M51.9,36.7c10.9,7.2,36.6,23.7,47.6,30.7l40-19.3C123,42.3,72.9,23.7,72.9,23.7s-4.5-0.2-6.5,0.6c-4.9,2-9.5,4.3-14.2,6.7
		c-1.1,0.6-2.9,1.8-2.8,2.4C49.6,34.6,50.8,35.9,51.9,36.7z"/>
</g>
</svg>
