<?xml version="1.0" encoding="utf-8"?>
<!-- Generator: Adobe Illustrator 18.0.0, SVG Export Plug-In . SVG Version: 6.00 Build 0)  -->
<!DOCTYPE svg PUBLIC "-//W3C//DTD SVG 1.1//EN" "http://www.w3.org/Graphics/SVG/1.1/DTD/svg11.dtd">
<svg version="1.1" id="Layer_1" xmlns="http://www.w3.org/2000/svg" xmlns:xlink="http://www.w3.org/1999/xlink" x="0px" y="0px"
	 viewBox="0 0 246.5 202.5" enable-background="new 0 0 246.5 202.5" xml:space="preserve">
<g id="Y4nWeT_1_">
	<g>
		<path d="M122.7,20.4c32.9,0.5,61.5,10.6,86.5,30.8c8.8,7.2,16.5,15.4,23.3,24.5c1.3,1.7,1.2,2.6-0.3,4.2
			c-5.6,6.2-11.3,12.4-16.9,18.7c-1.5,1.7-3.4,1.5-4.9-0.6c-6.6-8.8-14.3-16.5-23.3-22.8c-14.3-10.2-30.1-16.6-47.5-19
			c-28-3.9-54,1.7-77.6,17.3C52.1,80,43.7,88,36.6,97.4c-2.4,3.1-3.5,3.1-6.1,0.2c-5-5.5-10-11-15-16.4c-3-3.2-3-3.3-0.4-6.7
			C31.5,53,52.3,37.5,77.7,28.3c12.2-4.4,24.9-7,37.9-7.6C118.2,20.6,120.9,20.5,122.7,20.4z"/>
		<path d="M120.8,79.8c24.2,0.4,44,6.1,61,19.5c4.9,3.8,9,8.7,13.3,13.1c1.2,1.2,1,2.5-0.2,3.8c-5.1,5.4-10.2,10.8-15.3,16.2
			c-0.3,0.4-0.7,0.7-1,1.1c-1.7,1.7-3.3,1.7-4.9-0.1c-9-10.5-20.5-17.1-33.8-20.2c-24.8-5.7-46.7,0.2-65.1,18
			c-0.7,0.7-1.3,1.5-2,2.2c-1.7,1.8-3.2,1.8-4.8,0.1c-4.9-5.2-9.6-10.5-14.6-15.6c-4.4-4.4-2.7-4.5,0.1-7.7
			c13.7-15.8,31.3-24.9,51.7-28.6C111.2,80.5,117.3,80.2,120.8,79.8z"/>
		<path d="M122.2,129.1c15.3,0,27.6,12.3,27.8,27.7c0.2,15.2-12.5,27.9-27.8,27.9c-15.2,0-27.7-12.5-27.8-27.7
			C94.2,141.6,106.8,129.1,122.2,129.1z"/>
	</g>
</g>
</svg>
