<svg xmlns="http://www.w3.org/2000/svg" viewBox="0 0 246.5 202.5"><path fill="#010202" d="M175.2 85.1c5.3-5.5 8.5-15.1 8.5-22.2 0-5.4-2-14.7-6.4-20.3 1.6-18.9 2.7-25.7 2.7-25.7 0-.3.1-.6.1-.9 0-4.8-2.9-8.2-6.9-8.2H78.9c-1.4 0-2.7 0-3.9.1v-.1c-.9 0-1.5-.1-1.6-.1-4 0-6.9 3.5-6.9 8.2 0 .3 0 .6.1.9 0 .1 1.1 6.8 2.7 25.8-.7.9-1.4 2-2 3.1h-.5l.1.7c-2.8 5.4-4.1 12.1-4.1 16.5 0 6.8 3 16 7.9 21.6l10 99.3 1.6-.1c6 6.2 25 10.9 41 10.9 19 0 42.1-6.6 42.8-14.5 0-.3.2-2.1.5-5 1.2-12.9 4.8-50.7 7.7-85.9.3-1.4.6-2.7.9-4.1zM77 18.1h92.4c-.5 3.8-1.4 11.8-2.6 26 0 .6 0 1.1.2 1.7H79.4c.1-.5.2-1.1.2-1.7-1.1-14.1-2-22.1-2.6-26z"/></svg>