<svg xmlns="http://www.w3.org/2000/svg" viewBox="0 0 246.5 202.5"><path d="M210.3 83c-5.4-2-11-3-16.5-3-4.4 0-8.9.6-13.5 1.9-.9-2-1.8-3.9-2.7-5.8-2.9-6.1-5.8-12.5-8.2-18.8-.5-1.4.6-4 1.6-6.2.1-.3.3-.6.4-.9.5-.1 1.4-.2 1.9-.2.3 0 .6-.1.9-.1 1.4-.2 2.9-.2 4.4-.3.7 0 1.3-.1 2-.1l1.5-.1V37.6h-14.9c-7.8 0-16.2 0-24.7.1-1.4 0-3.4 1.6-3.5 3.1-.1 1.3.8 3.4 2.3 4 2.3.9 4.8 1.5 6.9 2.1 2.6.6 5.4 1.2 8 1.8.6.1 1.1.2 1.7.4-.4 1.1-.8 2.1-1 3.2-.4 1.8-1 2.4-3.7 2.4h-.1c-13.4-.1-26.6-.1-36.7-.1H81.5l.2-.7c.5-1.8.9-3.4 1.4-5.1 1.9-6.8 3.1-7.7 10.2-7.7h13.2v-12H89.1c-8.3.1-14 4.4-16.9 12.8-2.2 6.4-4.5 13.3-7 21.3-1.4 4.5-2.8 9-4.1 13.3-.4 1.5-.9 3-1.3 4.4-1.2 0-2.3-.1-3.4-.1-1.5 0-2.9-.1-4.3-.1-2 0-3.6.1-5.1.3-24.2 3.1-42 24.6-40.4 48.9.8 11.7 6 22.7 14.8 30.9 8.7 8.1 19.8 12.5 31.3 12.5 3.1 0 6.2-.3 9.3-1 18.6-4 32.9-18.5 36.3-37 3.4-18.3-4.6-36.8-20.3-47.1-.7-.5-1.5-.9-2.2-1.3-1.2-.7-3.1-1.7-3.3-2.4-.3-1.1.5-2.9 1.2-4.6.1-.3.2-.5.3-.8 2.3 2.5 4.5 5 6.8 7.4 6.7 7.4 13.7 15 20.4 22.5 3.6 4 7.2 8.2 10.7 12.2 2.8 3.3 5.8 6.7 8.7 9.9 3.4 3.8 7.7 5.6 12.9 5.4 1.2 0 2.6-.1 4.2-.1h9.5c1 0 1.4.1 1.8 1.5 5.8 20.8 23.4 34.2 44.6 34.2 2.1 0 4.2-.1 6.3-.4 20.5-2.5 37.1-19.3 39.6-39.8 2.6-20.9-9.7-41.6-29.2-48.9zm-126 52.2c-3.7 14.3-16.7 24.3-31.7 24.3-2.8 0-5.5-.3-8.2-1-16.8-4.2-27.4-22.1-23.4-39 4-16.4 18.7-25 31.2-25 1.1 0 2.2.1 3.2.2L54 99.9c-2.2 7-4.2 13.5-6.3 20.3-.5 1.5-.8 3.2-1 5.3-.4 3.6 1.3 6.2 4.8 7 .5.1 1.1.2 1.6.2 1.5 0 4.1-.6 5.4-4.5 2.4-7.3 4.8-14.7 7.2-21.8l.1-.4c.7-2.1 1.3-4.2 2-6.3.1-.4.3-.9.4-1.3 11.8 4.2 19.9 22.2 16.1 36.8zm46.2-13.4L80.9 67.7h69.7l-20.1 54.1zm16.9 2.6h-4.3l19.3-50.7 6.2 13.6c-12.9 8.8-20 21.3-21.2 37.1zm13.8-.2c.7-9.8 5-17.7 13.1-24.2l10.9 24.2h-24zm61.3 17c-5.7 10.8-16.8 17.6-29 17.6-1.7 0-3.5-.1-5.2-.4-11.5-1.8-22.6-11.5-25.3-21.6H186.4c2.5 0 5.5 0 8.5-.2 2.9-.1 4.9-1 5.9-2.7 1-1.7.9-3.9-.3-6.7-3.2-7.4-6.5-14.8-9.8-22-1.4-3.1-2.8-6.2-4.1-9.3-.2-.5-.4-.9-.6-1.4 2.1-.8 4.6-1.2 7.3-1.2 8.6 0 17.9 3.9 23.6 9.9 10 10.7 12.2 25.5 5.6 38z"/></svg>