<svg xmlns="http://www.w3.org/2000/svg" viewBox="0 0 246.5 202.5"><path fill="#010202" d="M236.9 83c-.2-12.2-10.8-22.7-23.2-23-3.1-.1-6.1.5-9.4 1.8 0-.5-.1-1.1-.1-1.6-1.2-18.5-16.1-33-34.1-33.1-18.6 0-13.8-.1-33.5-.1-19.1 0-39.2 0-59.8.1-8.6 0-16.8 3.2-23.2 9-6.3 5.8-10.3 13.6-11.2 22.2-.1 1.2-.2 2.3-.3 3.5-2.8-1.1-5.7-1.7-8.7-1.7-12.8 0-23.4 10.1-23.7 22.6-.4 15-.3 30.1 0 44.8.2 8.4 4.6 15.4 12.2 19.6 3.8 2.1 7.8 3.1 12.1 3.1h6.2l.7.7V167c0 1.4.2 2.6.5 3.6 1 2.9 3.8 4.8 7 4.8.3 0 .6 0 .9-.1 3.4-.4 6.1-3.1 6.3-6.4.2-2.8.2-5.7.2-8.4V158v-6.9c0-.4.3-.7.7-.7h133.7v16.8c0 4.4 2.6 7.7 6.4 8.1.4 0 .7.1 1.1.1 4.4 0 7.5-3.3 7.5-7.9v-12.3-4.9h7.8c12.6-.2 23.4-10.7 23.6-23 .5-15.1.5-30 .3-44.3zM66.1 45.3c3-2.2 6.6-3.3 10.6-3.3H169.9c5 0 10 2.2 13.7 5.9 3.8 3.8 5.8 8.8 5.8 14-.1 9.9-.1 19.9 0 29.7v10.7h-132V91.2c0-9.2 0-18.8-.1-28.2-.2-7.6 2.7-13.3 8.8-17.7zM222 126.6c0 4.7-3.8 8.4-8.6 8.5H33.9c-2.9 0-4.9-.8-6.7-2.5-1.8-1.8-2.7-3.9-2.7-6.4V83.9c0-3.9 2.8-7.7 6.2-8.6.9-.2 1.8-.4 2.7-.4 3.3 0 6.1 1.6 7.6 4.4.7 1.3 1.1 3.2 1.2 5.1.1 6.8.1 13.8.1 20.5v12.3h162v-4.8-8.5c0-6.5.1-13.2-.1-19.8-.1-2.5.9-4.8 2.6-6.5 1.7-1.8 4-2.7 6.4-2.7.7 0 1.5.1 2.2.3 3.7.9 6.6 4.6 6.6 8.5.1 12.6.1 27.6 0 42.9z"/></svg>