<svg xmlns="http://www.w3.org/2000/svg" viewBox="0 0 246.5 202.5"><path d="M123.3 148.8h-89c-8.5 0-13.8-5.4-13.8-13.9v-36c0-14 9.1-24.7 23.1-26.6 1.9-.3 1.8-1.4 2.1-2.5 2.9-11 5.7-22 8.6-33.1 2.5-9.6 11.4-16.5 21.3-16.5h95.5c9.9 0 18.7 6.9 21.3 16.5 2.9 11 5.8 22 8.6 33.1.4 1.6.9 2.3 2.9 2.6 13.1 1.9 22.3 12.7 22.4 26v36.8c0 8.3-5.4 13.7-13.8 13.7-29.9-.1-59.6-.1-89.2-.1zM186.2 72c0-.6.1-.9 0-1.2-2.6-10.2-5.3-20.4-8-30.6-.9-3.2-4-5.5-7.5-5.5h-95c-3.8 0-6.7 2.3-7.6 6-1.8 6.8-3.6 13.7-5.4 20.5-.9 3.6-1.8 7.2-2.8 10.9 42.4-.1 84.3-.1 126.3-.1zM176 102c0 7.2 5.7 13.1 12.9 13.2 7.1.1 13.2-5.9 13.1-13.2 0-7.2-5.8-13-13-13s-12.9 5.7-13 13zm-105.6.1c0-7.2-5.7-13-12.9-13.1-7.2-.1-13.1 5.8-13.1 12.9-.1 7.2 6 13.3 13.1 13.3 7.1-.1 12.9-6 12.9-13.1zM204.3 156c-.2 5.1.1 10.1-.8 15-1.4 7.3-8.4 11.9-16 11.3-6.8-.5-12.6-6.2-13.2-13.4-.3-4.2-.1-8.4-.1-12.8 9.8-.1 19.6-.1 30.1-.1zM42.6 155.9h30.1c-.3 5.2 0 10.5-1.1 15.4-1.5 7.2-8.2 11.4-15.8 10.9-6.7-.5-12.6-6.1-13.2-13.1-.3-4.3 0-8.7 0-13.2z"/></svg>